<?xml version="1.0" encoding="UTF-8" standalone="no"?>
<!-- Created with Inkscape (http://www.inkscape.org/) -->

<svg
   width="208.54805mm"
   height="175.12691mm"
   viewBox="0 0 208.54805 175.12691"
   version="1.1"
   id="svg1"
   xml:space="preserve"
   inkscape:version="1.4 (86a8ad7, 2024-10-11)"
   sodipodi:docname="CCIA_logo.svg"
   inkscape:export-filename="CCIA 3.png"
   inkscape:export-xdpi="96"
   inkscape:export-ydpi="96"
   xmlns:inkscape="http://www.inkscape.org/namespaces/inkscape"
   xmlns:sodipodi="http://sodipodi.sourceforge.net/DTD/sodipodi-0.dtd"
   xmlns="http://www.w3.org/2000/svg"
   xmlns:svg="http://www.w3.org/2000/svg"><sodipodi:namedview
     id="namedview1"
     pagecolor="#ffffff"
     bordercolor="#000000"
     borderopacity="0.25"
     inkscape:showpageshadow="2"
     inkscape:pageopacity="0.0"
     inkscape:pagecheckerboard="0"
     inkscape:deskcolor="#d1d1d1"
     inkscape:document-units="mm"
     inkscape:zoom="0.84108966"
     inkscape:cx="57.068827"
     inkscape:cy="326.36235"
     inkscape:window-width="1920"
     inkscape:window-height="1001"
     inkscape:window-x="-9"
     inkscape:window-y="-9"
     inkscape:window-maximized="1"
     inkscape:current-layer="layer2"><inkscape:page
       x="-2.9531692e-14"
       y="0"
       width="208.54807"
       height="175.12691"
       id="page2"
       margin="0"
       bleed="0" /></sodipodi:namedview><defs
     id="defs1"><linearGradient
       id="swatch9"
       inkscape:swatch="solid"><stop
         style="stop-color:#af0000;stop-opacity:1;"
         offset="0"
         id="stop9" /></linearGradient><clipPath
       id="clip3"><path
         d="m 1516497,1152843 h 572463 l -53397,207378 h -311688 l -45946,160190 c 120867,0 216277,32238 286231,96714 69954,64476 104931,154987 104931,271534 0,143827 -51922,257075 -155766,339744 -91802,72735 -204695,109103 -338678,109103 -60369,0 -133149,-12483 -218341,-37448 v -253130 c 58778,25664 120454,38496 185026,38496 168055,0 252083,-61883 252083,-185647 0,-109730 -91478,-171199 -274435,-184405 -20696,-1656 -46360,-828 -76990,2483 -36426,3312 -60848,4967 -73266,4967 z m -981953,-33528 c 135522,0 245637,35232 330344,105697 84706,70465 127060,161235 127060,272310 0,101141 -33115,200206 -99343,297194 l -170125,249929 h 357634 L 960903,2312670 H 219557 v -14901 l 404822,-528302 c 57122,-75232 85683,-145502 85683,-210813 0,-62839 -24008,-111618 -72023,-146336 -43877,-33076 -101827,-49613 -173850,-49613 -46360,0 -101412,12004 -165157,36011 v -250685 c 76848,-19144 155352,-28716 235512,-28716 z"
         fill-rule="evenodd"
         clip-rule="evenodd"
         id="path2-5" /></clipPath></defs><g
     inkscape:groupmode="layer"
     id="layer2"
     inkscape:label="Capa 2"
     transform="translate(-20.555396,-19.279098)"><path
       style="fill:#ffd42d;fill-opacity:1;stroke-width:0.222115"
       d="m 86.948485,161.02314 1.083833,-67.228009 -4.628456,-3.41774 10.463503,-14.83786 3.626581,3.09418 0.04889,-11.852952 1.697136,-4.383437 0.49951,-6.619514 c 1.611378,-4.606347 2.264168,-9.341552 10.755438,-13.023063 l 1.66532,-23.475646 1.20763,23.485742 c 0,0 7.93022,5.661149 8.29019,12.627596 l 0.35813,6.76345 2.27309,4.198094 c -0.11913,3.703185 -0.0331,8.646015 0.38374,12.155899 l 4.31014,-1.731332 7.89058,15.686583 -3.75262,2.02666 c -0.31533,43.969739 1.96374,46.428999 3.13921,66.545819 l 0.65727,-1.96442 -1.05377,1.78501 z"
       id="path1"
       sodipodi:nodetypes="cccccccccccccccccccccc" /></g><g
     inkscape:label="Capa 1"
     inkscape:groupmode="layer"
     id="layer1"
     transform="translate(-20.555396,-19.279098)"><path
       style="fill:#a4e057;fill-opacity:1;stroke-width:0.236165"
       d="m 140.18209,113.01841 c 3.51747,-3.19868 -32.62944,18.51981 -33.50237,16.25189 -17.988661,1.21298 -37.613048,-3.72037 -57.62421,-8.14721 -16.415122,1.24656 -38.440097,14.97172 3.403749,49.17338 22.175625,-3.32763 48.104071,-7.41202 65.256161,-8.33823 13.52874,1.1021 14.80356,-17.25707 28.3323,-8.94279 L 183.6733,172.277 c 26.19354,5.07864 19.66367,-26.16501 14.11487,-30.90553 l -35.31887,1.81263 c 6.15545,-4.61266 15.14376,-3.58281 23.13793,-4.53308 3.87838,-3.35097 9.76632,-10.90848 3.58065,-15.8631 l -41.89099,11.02781 c 11.3695,-11.12748 26.82163,-20.29919 44.19421,-23.45534 4.73832,-6.51708 -4.60078,-5.92204 -8.91835,-10.996116 3.34447,-10.24137 -29.36727,6.039656 -42.39066,13.654136 z"
       id="path3"
       sodipodi:nodetypes="ccccccccccccccc" /><path
       style="fill:#9b0000;fill-opacity:1;stroke-width:0.221025"
       d="m 118.82406,173.10591 c -15.21807,2.63015 10.04611,-43.91358 22.14703,-61.15178 0.75128,1.13069 19.69272,-12.060471 21.38659,-8.21748 1.78708,4.05443 14.86599,64.85031 14.86599,64.85031 l -19.60392,-9.3321 -0.5639,-0.36572 -4.42607,-16.38564 c -13.0477,14.59227 -29.58801,63.26033 -39.14311,43.77681 z"
       id="path7"
       sodipodi:nodetypes="ccscccccc" /><path
       style="fill:#ff6280;fill-opacity:1;stroke-width:0.262701"
       d="M 69.607602,128.17545 C 190.64638,93.808228 39.242254,100.98098 22.428979,132.44335 9.6619147,164.22903 64.8452,199.07085 106.0056,192.40155 84.153662,160.06345 51.975704,174.22435 38.419856,149.67954 38.516266,124.86512 70.455342,131.82691 78.479302,134.12585 Z"
       id="path5"
       sodipodi:nodetypes="cccccc" /><path
       style="fill:#ea2929;fill-opacity:1;stroke-width:0.266261"
       d="m 103.46312,104.46047 c -35.521565,11.30619 -38.511635,20.23808 -42.099664,34.89696 -3.543268,20.0913 3.292551,49.31894 41.862754,55.00425 l 1.47083,-32.83765 c -53.866315,15.91805 -46.991041,-40.12314 -1.10357,-31.4686 4.0109,0.75647 2.05699,0.0904 3.91652,-2.61149 z"
       id="path5-2"
       sodipodi:nodetypes="ccccscc" /><path
       style="fill:#bb0000;fill-opacity:1;stroke-width:0.264583"
       d="m 102.81284,93.586856 c 0.37931,5.31035 0.41121,100.819144 0.41121,100.819144 1.11424,-0.60767 13.49536,-1.11892 18.45892,-5.14821 l 0.70629,-93.691405 z"
       id="path6"
       sodipodi:nodetypes="ccccc" /><path
       style="fill:#d08e0b;fill-opacity:1;stroke-width:0.264583"
       d="m 229.10345,177.51724 -12.13794,1.13793"
       id="path8" /><path
       style="fill:#a4e057;fill-opacity:1;stroke:#ce7f7f;stroke-width:0.278"
       d="m 147.21974,126.45798 2.51657,-7.23516 5.6623,-3.14572 2.20201,11.01002 z"
       id="path2"
       sodipodi:nodetypes="ccccc" /><g
       transform="matrix(0.09262767,0,0,0.08926652,97.89139,138.28709)"
       id="g7"><g
         transform="matrix(9.6875465e-5,0,0,9.6458325e-5,856.27103,68.365969)"
         id="g6"><g
           clip-path="url(#clip3)"
           id="g5"
           inkscape:transform-center-x="-5.5753409"
           inkscape:transform-center-y="1.9712321"
           transform="matrix(1,0.06468359,0,1,0,-61166.152)" /></g><path
         style="fill:#782121;fill-opacity:1;stroke:#321f1f;stroke-width:3.05725;stroke-opacity:0"
         d="m 828.00449,47.207728 95.93959,-3.523954 c 66.6681,90.257086 -3.43869,120.667026 -58.57527,204.371646 l 117.93183,54.14815 -11.81125,88.23042 C 912.41129,395.1045 783.2268,308.5201 749.89437,284.19439 l 127.35345,-179.72222 -69.61987,2.64297 -11.88633,-59.026402 z"
         id="path4"
         sodipodi:nodetypes="cccccccccc" /><path
         style="fill:#550000;stroke:#321f1f;stroke-width:3.05725;stroke-opacity:0"
         d="m 1078.4663,35.754837 -121.41031,6.166946 c -3.94428,77.847367 -31.96929,115.918687 95.19671,140.187717 56.435,18.20124 0.014,162.07559 -69.22557,120.07288 l -26.64564,87.73878 c 37.19656,3.36562 85.58171,-5.10959 111.05911,-22.59065 25.2569,-17.32987 44.6214,-45.14157 57.828,-83.90701 22.1623,-53.26454 4.128,-107.59182 -6.0492,-163.09351 l -97.6377,-1.76198 -0.849,-32.596676 85.7513,-3.523953 c 2.9549,-3.518903 -10.0871,-41.86074 -28.0177,-46.692544 z"
         id="path9"
         sodipodi:nodetypes="cccccscccccc" /></g></g></svg>
